<svg width="298" height="55" viewBox="0 0 298 55" fill="none" xmlns="http://www.w3.org/2000/svg">
<rect width="298" height="55" rx="9" fill="#E9F1FF"/>
<path d="M56.3761 28.2525C56.3761 27.3173 56.2987 26.6348 56.1311 25.927H45.2333V30.1483H51.6301C51.5011 31.1974 50.8047 32.7773 49.2571 33.8389L49.2354 33.9802L52.6811 36.5962L52.9198 36.6195C55.1122 34.6352 56.3761 31.7156 56.3761 28.2525Z" fill="#4285F4"/>
<path d="M45.2326 39.3751C48.3664 39.3751 50.9974 38.3639 52.919 36.6198L49.2563 33.8392C48.2762 34.509 46.9607 34.9767 45.2326 34.9767C42.1632 34.9767 39.558 32.9924 38.6294 30.2498L38.4933 30.2611L34.9104 32.9785L34.8635 33.1061C36.7722 36.822 40.6929 39.3751 45.2326 39.3751Z" fill="#34A853"/>
<path d="M38.6301 30.2496C38.385 29.5418 38.2432 28.7834 38.2432 27.9999C38.2432 27.2162 38.385 26.4579 38.6172 25.7501L38.6107 25.5994L34.9829 22.8384L34.8642 22.8937C34.0775 24.4357 33.6261 26.1672 33.6261 27.9999C33.6261 29.8325 34.0775 31.564 34.8642 33.1059L38.6301 30.2496Z" fill="#FBBC05"/>
<path d="M45.2326 21.0233C47.4122 21.0233 48.8824 21.9459 49.7207 22.717L52.9965 19.5825C50.9846 17.7499 48.3665 16.625 45.2326 16.625C40.6929 16.625 36.7723 19.178 34.8635 22.8938L38.6165 25.7503C39.5581 23.0076 42.1632 21.0233 45.2326 21.0233Z" fill="#EB4335"/>
<path d="M87.304 30.072C87.304 30.6053 87.176 31.1013 86.92 31.56C86.664 32.0187 86.2747 32.392 85.752 32.68C85.2293 32.968 84.584 33.112 83.816 33.112C83.0693 33.112 82.4027 32.9787 81.816 32.712C81.24 32.4347 80.776 32.0613 80.424 31.592C80.0827 31.112 79.8853 30.568 79.832 29.96H81.384C81.416 30.28 81.5227 30.5947 81.704 30.904C81.896 31.2027 82.1627 31.4533 82.504 31.656C82.856 31.848 83.2773 31.944 83.768 31.944C84.408 31.944 84.8987 31.7733 85.24 31.432C85.5813 31.0907 85.752 30.6533 85.752 30.12C85.752 29.6613 85.6293 29.288 85.384 29C85.1493 28.712 84.856 28.488 84.504 28.328C84.152 28.1573 83.672 27.976 83.064 27.784C82.3493 27.5493 81.7733 27.3307 81.336 27.128C80.9093 26.9147 80.5413 26.6 80.232 26.184C79.9333 25.768 79.784 25.2187 79.784 24.536C79.784 23.9493 79.9227 23.432 80.2 22.984C80.488 22.536 80.8933 22.1893 81.416 21.944C81.9493 21.6987 82.5733 21.576 83.288 21.576C84.3973 21.576 85.2773 21.848 85.928 22.392C86.5787 22.9253 86.9573 23.608 87.064 24.44H85.496C85.4107 23.992 85.1813 23.5973 84.808 23.256C84.4347 22.9147 83.928 22.744 83.288 22.744C82.7013 22.744 82.232 22.8987 81.88 23.208C81.528 23.5067 81.352 23.9333 81.352 24.488C81.352 24.9253 81.464 25.2827 81.688 25.56C81.9227 25.8267 82.2107 26.04 82.552 26.2C82.8933 26.3493 83.3627 26.52 83.96 26.712C84.6853 26.9467 85.2667 27.1707 85.704 27.384C86.152 27.5973 86.5307 27.9227 86.84 28.36C87.1493 28.7867 87.304 29.3573 87.304 30.072ZM89.0058 21.64C89.0058 21.3733 89.0964 21.16 89.2778 21C89.4591 20.8293 89.6991 20.744 89.9978 20.744C90.2964 20.744 90.5364 20.8293 90.7178 21C90.8991 21.16 90.9898 21.3733 90.9898 21.64C90.9898 21.9067 90.8991 22.1253 90.7178 22.296C90.5364 22.456 90.2964 22.536 89.9978 22.536C89.6991 22.536 89.4591 22.456 89.2778 22.296C89.0964 22.1253 89.0058 21.9067 89.0058 21.64ZM90.7178 24.216V33H89.2618V24.216H90.7178ZM96.6586 24.104C97.512 24.104 98.232 24.3173 98.8186 24.744C99.416 25.1707 99.832 25.7413 100.067 26.456V24.216H101.523V33.144C101.523 33.9547 101.352 34.6747 101.011 35.304C100.669 35.9333 100.189 36.424 99.5706 36.776C98.952 37.128 98.232 37.304 97.4106 37.304C96.2266 37.304 95.2613 37.016 94.5146 36.44C93.768 35.8747 93.2933 35.1067 93.0906 34.136H94.5306C94.7013 34.7227 95.0213 35.1813 95.4906 35.512C95.9706 35.8533 96.584 36.024 97.3306 36.024C98.12 36.024 98.7706 35.768 99.2826 35.256C99.8053 34.7547 100.067 34.0507 100.067 33.144V30.76C99.832 31.4747 99.416 32.0453 98.8186 32.472C98.232 32.8987 97.512 33.112 96.6586 33.112C95.88 33.112 95.1866 32.9307 94.5786 32.568C93.9706 32.2053 93.4906 31.688 93.1386 31.016C92.7973 30.3333 92.6266 29.5333 92.6266 28.616C92.6266 27.6987 92.7973 26.8987 93.1386 26.216C93.4906 25.5333 93.9706 25.0107 94.5786 24.648C95.1866 24.2853 95.88 24.104 96.6586 24.104ZM97.0746 25.4C96.1786 25.4 95.4586 25.688 94.9146 26.264C94.3813 26.8293 94.1146 27.6133 94.1146 28.616C94.1146 29.6187 94.3813 30.408 94.9146 30.984C95.4586 31.5493 96.1786 31.832 97.0746 31.832C97.6506 31.832 98.1626 31.6987 98.6106 31.432C99.0693 31.1653 99.4266 30.792 99.6826 30.312C99.9386 29.8213 100.067 29.256 100.067 28.616C100.067 27.976 99.9386 27.4107 99.6826 26.92C99.4266 26.4293 99.0693 26.056 98.6106 25.8C98.1626 25.5333 97.6506 25.4 97.0746 25.4ZM108.464 24.072C109.488 24.072 110.315 24.4027 110.944 25.064C111.573 25.7147 111.888 26.6587 111.888 27.896V33H110.432V28.024C110.432 27.1493 110.208 26.4773 109.76 26.008C109.312 25.5387 108.704 25.304 107.936 25.304C107.136 25.304 106.496 25.5653 106.016 26.088C105.536 26.6 105.296 27.352 105.296 28.344V33H103.84V24.216H105.296V26.296C105.52 25.5813 105.915 25.032 106.48 24.648C107.056 24.264 107.717 24.072 108.464 24.072ZM117.818 21.64C117.818 21.3733 117.909 21.16 118.09 21C118.272 20.8293 118.512 20.744 118.81 20.744C119.109 20.744 119.349 20.8293 119.53 21C119.712 21.16 119.802 21.3733 119.802 21.64C119.802 21.9067 119.712 22.1253 119.53 22.296C119.349 22.456 119.109 22.536 118.81 22.536C118.512 22.536 118.272 22.456 118.09 22.296C117.909 22.1253 117.818 21.9067 117.818 21.64ZM119.53 24.216V33H118.074V24.216H119.53ZM126.495 24.072C127.519 24.072 128.346 24.4027 128.975 25.064C129.604 25.7147 129.919 26.6587 129.919 27.896V33H128.463V28.024C128.463 27.1493 128.239 26.4773 127.791 26.008C127.343 25.5387 126.735 25.304 125.967 25.304C125.167 25.304 124.527 25.5653 124.047 26.088C123.567 26.6 123.327 27.352 123.327 28.344V33H121.871V24.216H123.327V26.296C123.551 25.5813 123.946 25.032 124.511 24.648C125.087 24.264 125.748 24.072 126.495 24.072ZM148.17 24.216L145.642 33H144.074L141.658 25.848L139.226 33H137.642L135.146 24.216H136.618L138.49 31.608L140.922 24.216H142.442L144.89 31.592L146.778 24.216H148.17ZM149.271 21.64C149.271 21.3733 149.362 21.16 149.543 21C149.725 20.8293 149.965 20.744 150.263 20.744C150.562 20.744 150.802 20.8293 150.983 21C151.165 21.16 151.255 21.3733 151.255 21.64C151.255 21.9067 151.165 22.1253 150.983 22.296C150.802 22.456 150.562 22.536 150.263 22.536C149.965 22.536 149.725 22.456 149.543 22.296C149.362 22.1253 149.271 21.9067 149.271 21.64ZM150.983 24.216V33H149.527V24.216H150.983ZM157.516 31.72V33H156.428C155.532 33 154.86 32.7867 154.412 32.36C153.975 31.9333 153.756 31.2187 153.756 30.216V25.48H152.444V24.216H153.756V22.024H155.228V24.216H157.5V25.48H155.228V30.248C155.228 30.8133 155.33 31.2027 155.532 31.416C155.746 31.6187 156.108 31.72 156.62 31.72H157.516ZM163.917 24.072C164.941 24.072 165.768 24.4027 166.397 25.064C167.026 25.7147 167.341 26.6587 167.341 27.896V33H165.885V28.024C165.885 27.1493 165.661 26.4773 165.213 26.008C164.765 25.5387 164.157 25.304 163.389 25.304C162.589 25.304 161.949 25.5653 161.469 26.088C160.989 26.6 160.749 27.352 160.749 28.344V33H159.293V21.16H160.749V26.296C160.973 25.5813 161.368 25.032 161.933 24.648C162.509 24.264 163.17 24.072 163.917 24.072ZM178.647 21.608C179.959 21.608 181.058 21.9333 181.943 22.584C182.839 23.2347 183.442 24.12 183.751 25.24H182.215C181.949 24.5573 181.501 24.008 180.871 23.592C180.253 23.176 179.517 22.968 178.663 22.968C177.895 22.968 177.207 23.1493 176.599 23.512C175.991 23.864 175.511 24.3707 175.159 25.032C174.818 25.6933 174.647 26.472 174.647 27.368C174.647 28.2853 174.823 29.08 175.175 29.752C175.527 30.4133 176.013 30.9253 176.631 31.288C177.261 31.64 177.981 31.816 178.791 31.816C179.485 31.816 180.119 31.6667 180.695 31.368C181.271 31.0693 181.741 30.6373 182.103 30.072C182.477 29.496 182.701 28.824 182.775 28.056H178.343V26.968H184.007V28.312C183.911 29.208 183.634 30.0187 183.175 30.744C182.717 31.4693 182.098 32.0453 181.319 32.472C180.541 32.8987 179.655 33.112 178.663 33.112C177.575 33.112 176.615 32.872 175.783 32.392C174.951 31.9013 174.301 31.224 173.831 30.36C173.373 29.4853 173.143 28.488 173.143 27.368C173.143 26.248 173.373 25.256 173.831 24.392C174.301 23.5173 174.951 22.8347 175.783 22.344C176.615 21.8533 177.57 21.608 178.647 21.608ZM189.965 24.104C190.807 24.104 191.559 24.2853 192.221 24.648C192.893 25.0107 193.415 25.5333 193.789 26.216C194.173 26.8987 194.365 27.6987 194.365 28.616C194.365 29.5333 194.173 30.3333 193.789 31.016C193.415 31.688 192.893 32.2053 192.221 32.568C191.559 32.9307 190.807 33.112 189.965 33.112C189.122 33.112 188.365 32.9307 187.693 32.568C187.031 32.2053 186.509 31.688 186.125 31.016C185.741 30.3333 185.549 29.5333 185.549 28.616C185.549 27.6987 185.741 26.8987 186.125 26.216C186.509 25.5333 187.031 25.0107 187.693 24.648C188.365 24.2853 189.122 24.104 189.965 24.104ZM189.965 25.384C189.442 25.384 188.957 25.5013 188.509 25.736C188.071 25.9707 187.714 26.3333 187.437 26.824C187.17 27.304 187.037 27.9013 187.037 28.616C187.037 29.32 187.17 29.9173 187.437 30.408C187.714 30.888 188.071 31.2453 188.509 31.48C188.957 31.7147 189.442 31.832 189.965 31.832C190.487 31.832 190.967 31.7147 191.405 31.48C191.853 31.2453 192.21 30.888 192.477 30.408C192.754 29.9173 192.892 29.32 192.892 28.616C192.892 27.9013 192.754 27.304 192.477 26.824C192.21 26.3333 191.853 25.9707 191.405 25.736C190.967 25.5013 190.487 25.384 189.965 25.384ZM200.246 24.104C201.088 24.104 201.84 24.2853 202.502 24.648C203.174 25.0107 203.696 25.5333 204.07 26.216C204.454 26.8987 204.646 27.6987 204.646 28.616C204.646 29.5333 204.454 30.3333 204.07 31.016C203.696 31.688 203.174 32.2053 202.502 32.568C201.84 32.9307 201.088 33.112 200.246 33.112C199.403 33.112 198.646 32.9307 197.974 32.568C197.312 32.2053 196.79 31.688 196.406 31.016C196.022 30.3333 195.83 29.5333 195.83 28.616C195.83 27.6987 196.022 26.8987 196.406 26.216C196.79 25.5333 197.312 25.0107 197.974 24.648C198.646 24.2853 199.403 24.104 200.246 24.104ZM200.246 25.384C199.723 25.384 199.238 25.5013 198.79 25.736C198.352 25.9707 197.995 26.3333 197.718 26.824C197.451 27.304 197.318 27.9013 197.318 28.616C197.318 29.32 197.451 29.9173 197.718 30.408C197.995 30.888 198.352 31.2453 198.79 31.48C199.238 31.7147 199.723 31.832 200.246 31.832C200.768 31.832 201.248 31.7147 201.686 31.48C202.134 31.2453 202.491 30.888 202.758 30.408C203.035 29.9173 203.174 29.32 203.174 28.616C203.174 27.9013 203.035 27.304 202.758 26.824C202.491 26.3333 202.134 25.9707 201.686 25.736C201.248 25.5013 200.768 25.384 200.246 25.384ZM210.143 24.104C210.996 24.104 211.716 24.3173 212.303 24.744C212.9 25.1707 213.316 25.7413 213.551 26.456V24.216H215.007V33.144C215.007 33.9547 214.836 34.6747 214.495 35.304C214.154 35.9333 213.674 36.424 213.055 36.776C212.436 37.128 211.716 37.304 210.895 37.304C209.711 37.304 208.746 37.016 207.999 36.44C207.252 35.8747 206.778 35.1067 206.575 34.136H208.015C208.186 34.7227 208.506 35.1813 208.975 35.512C209.455 35.8533 210.068 36.024 210.815 36.024C211.604 36.024 212.255 35.768 212.767 35.256C213.29 34.7547 213.551 34.0507 213.551 33.144V30.76C213.316 31.4747 212.9 32.0453 212.303 32.472C211.716 32.8987 210.996 33.112 210.143 33.112C209.364 33.112 208.671 32.9307 208.063 32.568C207.455 32.2053 206.975 31.688 206.623 31.016C206.282 30.3333 206.111 29.5333 206.111 28.616C206.111 27.6987 206.282 26.8987 206.623 26.216C206.975 25.5333 207.455 25.0107 208.063 24.648C208.671 24.2853 209.364 24.104 210.143 24.104ZM210.559 25.4C209.663 25.4 208.943 25.688 208.399 26.264C207.866 26.8293 207.599 27.6133 207.599 28.616C207.599 29.6187 207.866 30.408 208.399 30.984C208.943 31.5493 209.663 31.832 210.559 31.832C211.135 31.832 211.647 31.6987 212.095 31.432C212.554 31.1653 212.911 30.792 213.167 30.312C213.423 29.8213 213.551 29.256 213.551 28.616C213.551 27.976 213.423 27.4107 213.167 26.92C212.911 26.4293 212.554 26.056 212.095 25.8C211.647 25.5333 211.135 25.4 210.559 25.4ZM218.78 21.16V33H217.324V21.16H218.78ZM229.201 28.12C229.201 28.4293 229.18 28.696 229.137 28.92H222.113C222.145 29.9227 222.428 30.6747 222.961 31.176C223.505 31.6773 224.166 31.928 224.945 31.928C225.649 31.928 226.236 31.752 226.705 31.4C227.185 31.0373 227.478 30.5573 227.585 29.96H229.137C229.03 30.568 228.79 31.112 228.417 31.592C228.054 32.072 227.58 32.4453 226.993 32.712C226.406 32.9787 225.745 33.112 225.009 33.112C224.166 33.112 223.42 32.9307 222.769 32.568C222.118 32.2053 221.606 31.688 221.233 31.016C220.87 30.3333 220.689 29.5333 220.689 28.616C220.689 27.6987 220.87 26.8987 221.233 26.216C221.606 25.5333 222.118 25.0107 222.769 24.648C223.42 24.2853 224.166 24.104 225.009 24.104C225.862 24.104 226.604 24.2853 227.233 24.648C227.873 25.0107 228.358 25.496 228.689 26.104C229.03 26.712 229.201 27.384 229.201 28.12ZM227.729 28.216C227.761 27.5653 227.654 27.0213 227.409 26.584C227.164 26.1467 226.828 25.8213 226.401 25.608C225.974 25.3947 225.51 25.288 225.009 25.288C224.209 25.288 223.537 25.5387 222.993 26.04C222.449 26.5307 222.156 27.256 222.113 28.216H227.729Z" fill="#4285F4"/>
</svg>
